<svg width="243" height="239" viewBox="0 0 243 239" fill="none" xmlns="http://www.w3.org/2000/svg">
<g filter="url(#filter0_d_120_2173)">
<path d="M162.053 48.7747V23.0482L179.458 48.2349C179.781 48.7008 180.127 48.4727 180.127 47.9061L179.886 23" stroke="#334466" stroke-width="2" stroke-miterlimit="10" stroke-linecap="round" stroke-linejoin="round"/>
<path d="M98.6465 48.5732L103.18 23.4736C103.293 22.886 104.113 22.8306 104.304 23.3982L111.679 48.3777C111.858 48.9098 112.612 48.9059 112.785 48.3719L119.909 23.4025C120.094 22.8335 120.914 22.8797 121.033 23.4658L125.835 48.5732" stroke="#334466" stroke-width="2" stroke-miterlimit="10" stroke-linecap="round" stroke-linejoin="round"/>
<path d="M142.592 23V48.7747" stroke="#334466" stroke-width="2" stroke-miterlimit="10" stroke-linecap="round" stroke-linejoin="round"/>
<path d="M215.351 25.2009C213.292 23.8113 210.811 23 208.14 23C201.018 23 195.244 28.7699 195.244 35.8871C195.244 43.0043 201.018 48.7742 208.14 48.7742C215.263 48.7742 219.273 43.0043 219.273 35.8871H211.558" stroke="#334466" stroke-width="2" stroke-miterlimit="10" stroke-linecap="round" stroke-linejoin="round"/>
<path d="M43.8506 25.2009C41.7923 23.8113 39.311 23 36.6403 23C29.5181 23 23.7441 28.7699 23.7441 35.8871C23.7441 43.0043 29.5181 48.7742 36.6403 48.7742C39.5329 48.7742 41.9125 47.8223 43.7182 46.2153C44.092 45.8827 44.441 45.5222 44.7652 45.1361" stroke="#334466" stroke-width="2" stroke-miterlimit="10" stroke-linecap="round" stroke-linejoin="round"/>
<path d="M77.9799 24.9698C75.994 23.7198 73.6431 23 71.1268 23C64.0011 23 58.2285 28.7684 58.2285 35.889C58.2285 43.0047 64.0011 48.7731 71.1268 48.7731C77.3569 48.7731 82.5551 44.3568 83.7573 38.4862" stroke="#334466" stroke-width="2" stroke-miterlimit="10" stroke-linecap="round" stroke-linejoin="round"/>
<path d="M77.9791 24.9725C81.6101 27.2536 84.0194 31.2906 84.0194 35.8917C84.0194 36.7818 83.9318 37.6524 83.7566 38.4889M11.0351 68.4643C7.87624 66.2124 5.82227 62.5159 5.82227 58.3477V13.4357C5.82227 6.56805 11.3904 1.00391 18.2629 1.00391H65.7867H102.257H140.757H177.227H224.751C231.623 1.00391 237.192 6.56805 237.192 13.4357V58.3477C237.192 65.2105 231.623 70.7795 224.751 70.7795H221.256" stroke="#334466" stroke-width="2" stroke-miterlimit="10" stroke-linecap="round" stroke-linejoin="round"/>
<path d="M180.182 122.491V84.7502L205.716 121.7C206.19 122.383 206.696 122.049 206.696 121.217L206.343 84.6797" stroke="#334466" stroke-width="2" stroke-miterlimit="10" stroke-linecap="round" stroke-linejoin="round"/>
<path d="M48.9176 88.5669C48.9176 88.5669 42.1278 82.8636 34.1212 85.2736C26.7692 87.4866 25.7412 95.9579 31.0597 99.4228C31.0597 99.4228 36.2788 101.75 42.0674 103.883C56.0024 109.02 49.9996 122.491 38.7816 122.491C33.1638 122.491 28.4494 120.033 25.5957 116.886" stroke="#334466" stroke-width="2" stroke-miterlimit="10" stroke-linecap="round" stroke-linejoin="round"/>
<path d="M89.5542 122.492C100.003 122.492 108.474 114.027 108.474 103.586C108.474 93.1442 100.003 84.6797 89.5542 84.6797C79.1053 84.6797 70.6348 93.1442 70.6348 103.586C70.6348 114.027 79.1053 122.492 89.5542 122.492Z" stroke="#334466" stroke-width="2" stroke-miterlimit="10" stroke-linecap="round" stroke-linejoin="round"/>
<path d="M143.257 122.492C153.706 122.492 162.177 114.027 162.177 103.586C162.177 93.1442 153.706 84.6797 143.257 84.6797C132.808 84.6797 124.338 93.1442 124.338 103.586C124.338 114.027 132.808 122.492 143.257 122.492Z" stroke="#334466" stroke-width="2" stroke-miterlimit="10" stroke-linecap="round" stroke-linejoin="round"/>
<path d="M11.0332 130.527V68.4688C13.0677 69.9279 15.5646 70.7839 18.2611 70.7839H180.665" stroke="#334466" stroke-width="2" stroke-miterlimit="10" stroke-linecap="round" stroke-linejoin="round"/>
<path d="M198.16 70.7852H221.255V162.516C221.255 168.319 218.904 173.567 215.098 177.37C211.297 181.169 206.04 183.523 200.233 183.523C188.625 183.523 179.212 174.116 179.212 162.516V155.361C179.212 145.488 171.2 137.482 161.32 137.482H155.06C150.12 137.482 145.647 139.486 142.41 142.721C139.174 145.955 137.168 150.425 137.168 155.361C137.168 161.159 134.812 166.412 131.011 170.215C127.205 174.019 121.953 176.368 116.147 176.368C109.839 176.368 104.178 173.591 100.226 169.214C93.0173 161.213 82.1341 157.57 71.4213 159.394L70.9054 159.481C62.2514 160.955 54.7899 166.174 50.0589 173.557C48.1363 176.553 45.5275 179.043 42.4465 180.789C39.3704 182.531 35.8319 183.523 32.0549 183.523C20.4465 183.523 11.0332 174.116 11.0332 162.516V146.374" stroke="#334466" stroke-width="2" stroke-miterlimit="10" stroke-linecap="round" stroke-linejoin="round"/>
<path d="M83.4446 168.672H99.863C100.298 168.672 100.716 168.499 101.024 168.191C101.332 167.884 101.505 167.466 101.505 167.031C101.505 166.596 101.332 166.179 101.024 165.871C100.716 165.563 100.298 165.391 99.863 165.391H83.4446C83.0091 165.391 82.5915 165.563 82.2836 165.871C81.9757 166.179 81.8027 166.596 81.8027 167.031C81.8027 167.466 81.9757 167.884 82.2836 168.191C82.5915 168.499 83.0091 168.672 83.4446 168.672Z" fill="#B1B5FF"/>
<path d="M75.2414 168.672H76.8833C77.3187 168.672 77.7363 168.499 78.0442 168.191C78.3522 167.884 78.5251 167.466 78.5251 167.031C78.5251 166.596 78.3522 166.179 78.0442 165.871C77.7363 165.563 77.3187 165.391 76.8833 165.391H75.2414C74.806 165.391 74.3884 165.563 74.0805 165.871C73.7726 166.179 73.5996 166.596 73.5996 167.031C73.5996 167.466 73.7726 167.884 74.0805 168.191C74.3884 168.499 74.806 168.672 75.2414 168.672Z" fill="#B1B5FF"/>
<path d="M101.505 183.438C101.505 183.002 101.332 182.585 101.024 182.277C100.716 181.97 100.298 181.797 99.863 181.797H83.4446C83.0091 181.797 82.5915 181.97 82.2836 182.277C81.9757 182.585 81.8027 183.002 81.8027 183.438C81.8027 183.873 81.9757 184.29 82.2836 184.598C82.5915 184.905 83.0091 185.078 83.4446 185.078H99.863C100.298 185.078 100.716 184.905 101.024 184.598C101.332 184.29 101.505 183.873 101.505 183.438Z" fill="#B1B5FF"/>
<path d="M76.8833 181.797H75.2414C74.806 181.797 74.3884 181.97 74.0805 182.277C73.7726 182.585 73.5996 183.002 73.5996 183.438C73.5996 183.873 73.7726 184.29 74.0805 184.598C74.3884 184.905 74.806 185.078 75.2414 185.078H76.8833C77.3187 185.078 77.7363 184.905 78.0442 184.598C78.3522 184.29 78.5251 183.873 78.5251 183.438C78.5251 183.002 78.3522 182.585 78.0442 182.277C77.7363 181.97 77.3187 181.797 76.8833 181.797Z" fill="#B1B5FF"/>
<path d="M101.499 175.227C101.499 174.791 101.326 174.374 101.018 174.067C100.71 173.759 100.293 173.586 99.8571 173.586H70.304C69.8685 173.586 69.4509 173.759 69.143 174.066C68.8351 174.374 68.6621 174.791 68.6621 175.227C68.6621 175.662 68.8351 176.079 69.143 176.387C69.4509 176.694 69.8685 176.867 70.304 176.867H99.8571C100.293 176.867 100.71 176.694 101.018 176.387C101.326 176.079 101.499 175.662 101.499 175.227Z" fill="#7C8AA6"/>
<path d="M139.638 171.984L150.165 163.373C150.501 163.097 150.714 162.699 150.756 162.267C150.799 161.835 150.669 161.403 150.394 161.067C150.118 160.73 149.721 160.517 149.288 160.473C148.856 160.429 148.424 160.559 148.087 160.833L137.564 169.441C138.392 170.167 139.093 171.027 139.638 171.984Z" fill="#B1B5FF"/>
<path d="M124.514 176.828C124.514 178.125 124.9 179.393 125.622 180.471C126.343 181.549 127.369 182.389 128.568 182.885C129.767 183.381 131.087 183.511 132.36 183.257C133.633 183.004 134.802 182.379 135.72 181.461C136.637 180.544 137.262 179.375 137.515 178.103C137.768 176.831 137.638 175.512 137.141 174.314C136.644 173.115 135.803 172.091 134.723 171.371C133.644 170.65 132.375 170.266 131.077 170.266C129.337 170.268 127.668 170.96 126.438 172.191C125.207 173.421 124.515 175.089 124.514 176.828ZM134.359 176.828C134.359 177.477 134.166 178.111 133.805 178.65C133.444 179.189 132.932 179.609 132.332 179.857C131.732 180.105 131.072 180.169 130.436 180.043C129.799 179.916 129.215 179.603 128.756 179.145C128.297 178.686 127.985 178.102 127.858 177.465C127.732 176.829 127.797 176.17 128.045 175.571C128.294 174.972 128.715 174.46 129.254 174.099C129.794 173.739 130.428 173.547 131.077 173.547C131.948 173.548 132.782 173.894 133.397 174.509C134.012 175.125 134.358 175.959 134.359 176.828Z" fill="#7C8AA6"/>
<path d="M127.841 137.543L127.371 137.815C127.184 137.922 127.02 138.066 126.889 138.237C126.758 138.408 126.662 138.603 126.606 138.811C126.55 139.019 126.536 139.236 126.564 139.45C126.593 139.663 126.663 139.869 126.77 140.056C126.878 140.242 127.022 140.406 127.193 140.537C127.364 140.668 127.559 140.764 127.768 140.82C127.976 140.876 128.193 140.89 128.407 140.861C128.621 140.833 128.827 140.763 129.013 140.655L134.776 137.325C135.026 137.181 135.233 136.974 135.377 136.725C135.52 136.475 135.596 136.193 135.596 135.905C135.596 135.617 135.52 135.334 135.377 135.085C135.233 134.836 135.026 134.629 134.776 134.484L129.013 131.153C128.636 130.936 128.188 130.877 127.768 130.989C127.347 131.102 126.989 131.377 126.771 131.753C126.553 132.13 126.494 132.578 126.606 132.998C126.719 133.418 126.994 133.777 127.371 133.994L127.819 134.253C119.662 134.893 111.861 137.857 105.339 142.794C98.8178 147.731 93.8501 154.433 91.0254 162.106H94.5524C97.2828 155.334 101.84 149.453 107.718 145.116C113.595 140.779 120.561 138.158 127.841 137.543Z" fill="#7C8AA6"/>
<path d="M129.436 206.401V211.323C129.436 211.758 129.608 212.175 129.916 212.483C130.224 212.79 130.641 212.963 131.076 212.963C131.512 212.963 131.929 212.79 132.237 212.483C132.544 212.175 132.717 211.758 132.717 211.323V206.401C132.717 205.967 132.544 205.549 132.237 205.242C131.929 204.934 131.512 204.762 131.076 204.762C130.641 204.762 130.224 204.934 129.916 205.242C129.608 205.549 129.436 205.967 129.436 206.401Z" fill="#B1B5FF"/>
<path d="M160.613 178.512H165.535C165.971 178.512 166.388 178.339 166.696 178.031C167.004 177.724 167.177 177.306 167.177 176.871C167.177 176.436 167.004 176.019 166.696 175.711C166.388 175.403 165.971 175.23 165.535 175.23H160.613C160.177 175.23 159.759 175.403 159.452 175.711C159.144 176.019 158.971 176.436 158.971 176.871C158.971 177.306 159.144 177.724 159.452 178.031C159.759 178.339 160.177 178.512 160.613 178.512Z" fill="#B1B5FF"/>
<path d="M150.682 199.195L154.163 202.675C154.471 202.982 154.888 203.155 155.324 203.155C155.759 203.154 156.176 202.982 156.484 202.674C156.792 202.366 156.965 201.949 156.964 201.514C156.964 201.079 156.791 200.662 156.483 200.355L153.003 196.875C152.85 196.722 152.669 196.602 152.47 196.519C152.271 196.437 152.057 196.394 151.842 196.395C151.626 196.395 151.413 196.437 151.214 196.52C151.015 196.602 150.834 196.723 150.682 196.875C150.529 197.028 150.408 197.208 150.326 197.407C150.244 197.606 150.201 197.82 150.201 198.035C150.201 198.25 150.244 198.464 150.326 198.663C150.409 198.862 150.53 199.042 150.682 199.195Z" fill="#7C8AA6"/>
<path d="M53.886 219.527C54.7927 219.527 55.5278 218.793 55.5278 217.887C55.5278 216.981 54.7927 216.246 53.886 216.246C52.9792 216.246 52.2441 216.981 52.2441 217.887C52.2441 218.793 52.9792 219.527 53.886 219.527Z" fill="#7C8AA6"/>
<path d="M61.2745 216.246H58.8118C58.3763 216.246 57.9587 216.419 57.6508 216.727C57.3429 217.034 57.1699 217.452 57.1699 217.887C57.1699 218.322 57.3429 218.739 57.6508 219.047C57.9587 219.355 58.3763 219.527 58.8118 219.527H61.2745C61.71 219.527 62.1276 219.355 62.4355 219.047C62.7434 218.739 62.9164 218.322 62.9164 217.887C62.9164 217.452 62.7434 217.034 62.4355 216.727C62.1276 216.419 61.71 216.246 61.2745 216.246Z" fill="#7C8AA6"/>
<path d="M149.236 222.805H142.416C142.003 222.838 141.618 223.025 141.337 223.329C141.056 223.633 140.9 224.032 140.9 224.445C140.9 224.859 141.056 225.258 141.337 225.562C141.618 225.866 142.003 226.053 142.416 226.086H149.236C149.649 226.053 150.034 225.866 150.315 225.562C150.596 225.258 150.752 224.859 150.752 224.445C150.752 224.032 150.596 223.633 150.315 223.329C150.034 223.025 149.649 222.838 149.236 222.805Z" fill="#B1B5FF"/>
<path d="M99.9821 222.805H93.162C92.7493 222.838 92.3641 223.025 92.0833 223.329C91.8024 223.633 91.6465 224.032 91.6465 224.445C91.6465 224.859 91.8024 225.258 92.0833 225.562C92.3641 225.866 92.7493 226.053 93.162 226.086H99.9821C100.395 226.053 100.78 225.866 101.061 225.562C101.342 225.258 101.498 224.859 101.498 224.445C101.498 224.032 101.342 223.633 101.061 223.329C100.78 223.025 100.395 222.838 99.9821 222.805Z" fill="#B1B5FF"/>
<path d="M137.617 222.805H104.781C104.345 222.805 103.927 222.978 103.62 223.285C103.312 223.593 103.139 224.01 103.139 224.445C103.139 224.88 103.312 225.298 103.62 225.605C103.927 225.913 104.345 226.086 104.781 226.086H117.866V227.727H111.348C110.912 227.727 110.495 227.9 110.187 228.207C109.879 228.515 109.706 228.932 109.706 229.367C109.706 229.803 109.879 230.22 110.187 230.528C110.495 230.835 110.912 231.008 111.348 231.008H131.871C132.306 231.008 132.724 230.835 133.032 230.528C133.34 230.22 133.513 229.803 133.513 229.367C133.513 228.932 133.34 228.515 133.032 228.207C132.724 227.9 132.306 227.727 131.871 227.727H124.532V226.086H137.617C138.053 226.086 138.47 225.913 138.778 225.605C139.086 225.298 139.259 224.88 139.259 224.445C139.259 224.01 139.086 223.593 138.778 223.285C138.47 222.978 138.053 222.805 137.617 222.805Z" fill="#B1B5FF"/>
<path d="M183.591 216.246H181.128C180.693 216.246 180.275 216.419 179.967 216.727C179.659 217.034 179.486 217.452 179.486 217.887C179.486 218.322 179.659 218.739 179.967 219.047C180.275 219.355 180.693 219.527 181.128 219.527H183.591C184.026 219.527 184.444 219.355 184.752 219.047C185.06 218.739 185.233 218.322 185.233 217.887C185.233 217.452 185.06 217.034 184.752 216.727C184.444 216.419 184.026 216.246 183.591 216.246Z" fill="#7C8AA6"/>
<path d="M188.519 219.527C189.426 219.527 190.161 218.793 190.161 217.887C190.161 216.981 189.426 216.246 188.519 216.246C187.612 216.246 186.877 216.981 186.877 217.887C186.877 218.793 187.612 219.527 188.519 219.527Z" fill="#7C8AA6"/>
<path d="M175.977 216.246H147.469C153.737 213.629 159.29 209.557 163.669 204.369C168.049 199.18 171.128 193.023 172.652 186.409C174.177 179.794 174.102 172.912 172.435 166.331C170.768 159.751 167.557 153.663 163.066 148.57C162.924 148.407 162.751 148.275 162.557 148.18C162.363 148.085 162.152 148.029 161.937 148.015C161.721 148.001 161.505 148.03 161.301 148.1C161.097 148.17 160.908 148.28 160.747 148.422C160.585 148.565 160.453 148.738 160.358 148.932C160.263 149.126 160.208 149.337 160.195 149.552C160.182 149.768 160.211 149.983 160.282 150.187C160.352 150.391 160.462 150.579 160.606 150.741C164.511 155.144 167.38 160.365 169.001 166.021C170.623 171.678 170.955 177.625 169.974 183.427C168.993 189.228 166.723 194.736 163.332 199.546C159.941 204.356 155.514 208.346 150.377 211.222C145.241 214.097 139.524 215.786 133.649 216.165C127.773 216.543 121.887 215.601 116.423 213.407C110.96 211.214 106.058 207.825 102.077 203.49C98.0961 199.154 95.138 193.983 93.4201 188.355H90.0089C91.7617 194.56 94.8926 200.291 99.1686 205.12C103.445 209.949 108.755 213.752 114.706 216.246H66.4309C66.1973 216.216 65.9599 216.235 65.7345 216.304C65.5092 216.372 65.301 216.488 65.124 216.643C64.947 216.799 64.8051 216.99 64.708 217.204C64.6108 217.419 64.5605 217.651 64.5605 217.887C64.5605 218.122 64.6108 218.355 64.708 218.569C64.8051 218.784 64.947 218.975 65.124 219.13C65.301 219.286 65.5092 219.401 65.7345 219.47C65.9599 219.538 66.1973 219.558 66.4309 219.528H175.977C176.211 219.558 176.448 219.538 176.673 219.47C176.899 219.401 177.107 219.286 177.284 219.13C177.461 218.975 177.603 218.784 177.7 218.569C177.797 218.355 177.847 218.122 177.847 217.887C177.847 217.651 177.797 217.419 177.7 217.204C177.603 216.99 177.461 216.799 177.284 216.643C177.107 216.488 176.899 216.372 176.673 216.304C176.448 216.235 176.211 216.216 175.977 216.246Z" fill="#7C8AA6"/>
<path d="M152.351 117.078C152.839 117.078 153.315 116.934 153.72 116.664C154.125 116.393 154.44 116.009 154.627 115.559C154.813 115.109 154.862 114.615 154.767 114.137C154.672 113.66 154.437 113.221 154.093 112.877C153.748 112.533 153.31 112.298 152.832 112.204C152.354 112.109 151.859 112.157 151.409 112.344C150.959 112.53 150.574 112.845 150.304 113.25C150.033 113.655 149.889 114.131 149.889 114.617C149.889 115.27 150.149 115.895 150.611 116.357C151.073 116.818 151.698 117.078 152.351 117.078ZM152.351 113.387C152.595 113.387 152.833 113.459 153.036 113.594C153.238 113.729 153.396 113.922 153.489 114.146C153.582 114.371 153.607 114.619 153.559 114.857C153.512 115.096 153.394 115.315 153.222 115.487C153.05 115.659 152.831 115.777 152.592 115.824C152.353 115.872 152.105 115.847 151.88 115.754C151.655 115.661 151.463 115.503 151.328 115.301C151.192 115.099 151.12 114.861 151.12 114.617C151.12 114.291 151.25 113.978 151.481 113.748C151.712 113.517 152.025 113.387 152.351 113.387Z" fill="#7C8AA6"/>
<path d="M182.202 151.438C181.878 151.438 181.56 151.534 181.29 151.714C181.02 151.894 180.81 152.151 180.686 152.45C180.561 152.75 180.529 153.08 180.592 153.398C180.655 153.717 180.812 154.009 181.041 154.238C181.271 154.468 181.564 154.624 181.882 154.687C182.201 154.751 182.531 154.718 182.831 154.594C183.131 154.47 183.387 154.26 183.568 153.99C183.748 153.72 183.844 153.403 183.844 153.078C183.844 152.643 183.671 152.226 183.363 151.919C183.055 151.611 182.638 151.438 182.202 151.438ZM182.202 153.899C182.04 153.899 181.881 153.85 181.746 153.76C181.611 153.67 181.506 153.542 181.444 153.392C181.382 153.242 181.366 153.077 181.397 152.918C181.429 152.759 181.507 152.613 181.622 152.498C181.737 152.383 181.883 152.305 182.042 152.274C182.201 152.242 182.367 152.258 182.517 152.32C182.667 152.382 182.795 152.488 182.885 152.622C182.975 152.757 183.023 152.916 183.023 153.078C183.023 153.296 182.937 153.504 182.783 153.658C182.629 153.812 182.42 153.898 182.202 153.899Z" fill="#7C8AA6"/>
<path d="M89.1868 146.371C88.862 146.371 88.5446 146.467 88.2746 146.648C88.0046 146.828 87.7942 147.084 87.6699 147.384C87.5456 147.684 87.5131 148.014 87.5765 148.332C87.6398 148.65 87.7962 148.942 88.0258 149.172C88.2554 149.401 88.548 149.558 88.8665 149.621C89.1849 149.684 89.5151 149.652 89.8151 149.528C90.1151 149.403 90.3715 149.193 90.5519 148.923C90.7323 148.653 90.8286 148.336 90.8286 148.012C90.8281 147.577 90.655 147.16 90.3472 146.852C90.0394 146.545 89.6221 146.372 89.1868 146.371ZM89.1868 148.832C89.0244 148.832 88.8657 148.784 88.7307 148.694C88.5957 148.604 88.4905 148.476 88.4283 148.326C88.3662 148.176 88.3499 148.011 88.3816 147.852C88.4133 147.693 88.4915 147.546 88.6063 147.432C88.7211 147.317 88.8674 147.239 89.0266 147.207C89.1859 147.176 89.3509 147.192 89.5009 147.254C89.6509 147.316 89.7791 147.421 89.8693 147.556C89.9595 147.691 90.0077 147.85 90.0077 148.012C90.0075 148.229 89.9209 148.438 89.767 148.592C89.6131 148.745 89.4044 148.832 89.1868 148.832Z" fill="#7C8AA6"/>
<path d="M182.202 103.039C181.878 103.039 181.56 103.135 181.29 103.316C181.02 103.496 180.81 103.752 180.686 104.052C180.561 104.352 180.529 104.682 180.592 105C180.655 105.318 180.812 105.61 181.041 105.84C181.271 106.069 181.564 106.226 181.882 106.289C182.201 106.352 182.531 106.32 182.831 106.196C183.131 106.071 183.387 105.861 183.568 105.591C183.748 105.321 183.844 105.004 183.844 104.68C183.844 104.245 183.671 103.828 183.363 103.52C183.055 103.213 182.638 103.04 182.202 103.039ZM182.202 105.5C182.04 105.5 181.881 105.452 181.746 105.362C181.611 105.272 181.506 105.144 181.444 104.994C181.382 104.844 181.366 104.679 181.397 104.52C181.429 104.361 181.507 104.214 181.622 104.1C181.737 103.985 181.883 103.907 182.042 103.875C182.201 103.844 182.367 103.86 182.517 103.922C182.667 103.984 182.795 104.089 182.885 104.224C182.975 104.359 183.023 104.517 183.023 104.68C183.023 104.897 182.937 105.106 182.783 105.26C182.629 105.413 182.42 105.5 182.202 105.5Z" fill="#7C8AA6"/>
<path d="M65.6294 100.914C65.6294 100.59 65.5331 100.272 65.3527 100.003C65.1723 99.7328 64.9159 99.5225 64.6159 99.3983C64.3158 99.2741 63.9857 99.2417 63.6672 99.305C63.3488 99.3683 63.0562 99.5245 62.8266 99.754C62.597 99.9834 62.4406 100.276 62.3773 100.594C62.3139 100.912 62.3464 101.242 62.4707 101.542C62.5949 101.842 62.8054 102.098 63.0754 102.278C63.3454 102.459 63.6628 102.555 63.9875 102.555C64.4228 102.554 64.8402 102.381 65.148 102.074C65.4557 101.766 65.6289 101.349 65.6294 100.914ZM63.1666 100.914C63.1666 100.752 63.2148 100.593 63.305 100.458C63.3952 100.323 63.5234 100.218 63.6734 100.156C63.8234 100.094 63.9885 100.078 64.1477 100.11C64.3069 100.141 64.4532 100.219 64.568 100.334C64.6828 100.449 64.761 100.595 64.7927 100.754C64.8244 100.913 64.8081 101.078 64.746 101.228C64.6838 101.378 64.5786 101.506 64.4436 101.596C64.3086 101.686 64.1499 101.734 63.9875 101.734C63.7699 101.734 63.5612 101.648 63.4073 101.494C63.2534 101.34 63.1668 101.132 63.1666 100.914Z" fill="#7C8AA6"/>
<path d="M57.513 129.907L58.7337 128.304L57.9628 127.867L57.1797 129.664H57.1534L56.3579 127.879L55.5731 128.329L56.7815 129.895V129.92L54.8926 129.677V130.55L56.7938 130.306V130.331L55.5731 131.897L56.3054 132.359L57.1411 130.55H57.1657L57.9366 132.346L58.746 131.884L57.513 130.344V130.318L59.452 130.55V129.677L57.513 129.933V129.907Z" fill="#B1B5FF"/>
<path d="M94.9994 116.04L94.2967 116.942L94.7186 117.208L95.1997 116.166H95.2137L95.6578 117.2L96.1241 116.934L95.414 116.047V116.033L96.5304 116.166V115.663L95.414 115.811V115.796L96.1167 114.872L95.6734 114.621L95.2219 115.656H95.2071L94.7482 114.628L94.2967 114.887L94.992 115.788V115.803L93.9043 115.663V116.166L94.9994 116.026V116.04Z" fill="#B1B5FF"/>
<path d="M179.733 133.982V133.127L177.831 133.378V133.353L179.028 131.78L178.272 131.352L177.503 133.114H177.478L176.697 131.364L175.928 131.804L177.113 133.341V133.365L175.26 133.127V133.982L177.125 133.744V133.768L175.928 135.304L176.646 135.758L177.466 133.982H177.49L178.246 135.745L179.04 135.292L177.831 133.781V133.756L179.733 133.982Z" fill="#B1B5FF"/>
<path d="M123.418 98.8401L124.451 97.4824L123.799 97.1133L123.136 98.6334H123.114L122.441 97.1239L121.777 97.5046L122.8 98.8294V98.8508L121.201 98.6449V99.3832L122.81 99.1773V99.1986L121.777 100.523L122.396 100.915L123.103 99.3832H123.125L123.777 100.903L124.462 100.513L123.418 99.2092V99.1879L125.059 99.3832V98.6449L123.418 98.8614V98.8401Z" fill="#B1B5FF"/>
</g>
<defs>
<filter id="filter0_d_120_2173" x="0.822266" y="0.00390625" width="241.369" height="239.004" filterUnits="userSpaceOnUse" color-interpolation-filters="sRGB">
<feFlood flood-opacity="0" result="BackgroundImageFix"/>
<feColorMatrix in="SourceAlpha" type="matrix" values="0 0 0 0 0 0 0 0 0 0 0 0 0 0 0 0 0 0 127 0" result="hardAlpha"/>
<feOffset dy="4"/>
<feGaussianBlur stdDeviation="2"/>
<feComposite in2="hardAlpha" operator="out"/>
<feColorMatrix type="matrix" values="0 0 0 0 0 0 0 0 0 0 0 0 0 0 0 0 0 0 0.25 0"/>
<feBlend mode="normal" in2="BackgroundImageFix" result="effect1_dropShadow_120_2173"/>
<feBlend mode="normal" in="SourceGraphic" in2="effect1_dropShadow_120_2173" result="shape"/>
</filter>
</defs>
</svg>
