<svg width="156" height="156" viewBox="0 0 156 156" fill="none" xmlns="http://www.w3.org/2000/svg">
<path d="M141.46 41.4495C138.983 43.6045 136.18 45.0019 132.892 45.7193C131.636 45.9949 130.725 45.97 130.181 45.6431C129.561 45.2706 129.678 44.6487 129.729 44.4673C129.884 43.9009 130.657 43.3056 130.683 42.5242C130.705 41.7916 130.104 41.1047 129.582 40.7377C126.489 38.5836 119.262 40.6433 108.481 36.1507C105.141 34.7488 108.701 29.7986 106.337 26.2802C105.3 24.7374 103.638 23.4799 102.162 22.4232C98.004 19.4468 93.8731 17.2569 88.8912 17.9083C87.9907 18.0327 88.2135 18.0093 86.129 18.8236C84.8191 17.5293 82.8019 18.1896 82.2844 19.7425L69.4574 58.5524C69.5945 57.9655 69.7115 57.2955 69.4896 56.6604C68.4552 53.583 62.1427 53.3753 61.2466 57.7229C61.2083 57.6931 61.1816 57.6505 61.1314 57.6381C61.1046 57.6315 61.0809 57.6504 61.0539 57.6503C59.9962 56.1304 55.4443 56.3717 54.3895 59.3624C54.0821 60.2751 54.161 61.3207 54.5876 62.3123C50.7112 61.0423 47.8067 65.788 49.4134 68.2496C48.8428 68.3867 48.2584 68.7551 47.7252 69.3243C45.0051 72.2299 46.217 75.8667 47.9329 79.3637C49.8201 83.182 52.1693 86.806 55.4241 89.5777C55.5324 89.8825 55.62 90.1946 55.7163 90.5038C51.9183 91.1049 48.4257 92.2119 45.1554 93.8033C47.9264 102.594 48.2903 112.943 48.8948 120.017C27.0478 121.862 11.7734 126.83 11.7734 132.82C11.7734 140.454 36.4282 146.432 67.9038 146.432C99.3503 146.432 123.984 140.454 123.984 132.82C123.984 126.479 106.882 121.285 82.9938 119.727C83.1271 116.076 83.3466 110.84 83.3681 108.652C83.4384 104.416 83.2697 100.179 83.0021 95.9708C80.7706 94.6043 78.4102 93.4796 75.9746 92.5807C75.8513 91.4899 75.7017 90.3926 75.521 89.2952C76.5195 82.1976 83.119 72.3601 81.1998 66.2844C86.6889 66.4029 92.4919 62.1507 95.1429 62.6461C96.1622 62.8441 97.1483 63.8219 97.0361 65.1182C96.7415 68.5046 91.2188 68.9216 90.9077 72.7991C90.7438 74.8153 92.0136 76.5468 95.0335 76.4415C100.151 76.3044 105.405 73.2381 109.872 70.255C111.782 68.969 114.015 67.4164 116.182 66.8715C117.172 66.6167 118.006 66.7026 118.159 67.0751C118.258 67.3161 118.197 67.9282 116.694 69.3187C115.763 70.1663 114.604 71.2216 114.338 72.3573C114.06 73.5283 114.891 74.4255 116.369 74.2436C118.274 73.9902 121.139 72.0084 125.58 70.9585C129.144 70.1054 132.695 70.6112 133.837 68.9393C138.055 62.8627 141.463 55.9826 144.177 42.5256C144.528 40.7379 142.879 40.1747 141.46 41.4495ZM51.5594 99.3065L53.755 98.3495C54.1968 98.1796 54.4601 98.8339 54.0367 98.9969L51.8267 99.9539C51.3587 100.109 51.1388 99.4681 51.5594 99.3065ZM47.9 100.573L48.9978 99.9258C49.358 99.664 49.7724 100.284 49.3497 100.531L48.2518 101.178C47.8968 101.445 47.4783 100.819 47.9 100.573ZM58.6531 98.2931L60.6798 97.9976C61.1662 97.9326 61.2375 98.6327 60.7923 98.7013C60.6495 98.7216 58.5666 99.0171 58.7093 98.9969C58.2614 98.9969 58.2335 98.353 58.6531 98.2931ZM67.1258 98.0539C67.2686 98.0511 69.4222 98.0088 69.2794 98.0116C69.761 98.0116 69.7262 98.7154 69.2794 98.7154L67.1258 98.7576C66.6598 98.7576 66.6588 98.0539 67.1258 98.0539ZM123.275 132.82C123.275 139.934 98.4363 145.723 67.9038 145.723C37.345 145.723 12.4825 139.934 12.4825 132.82C12.4825 127.381 27.9175 122.601 48.9598 120.76C49.0478 121.736 49.2747 123.855 49.2902 123.998C19.7047 127.631 19.7463 138.305 50.5039 141.826C50.4334 140.644 50.3489 139.49 50.2787 138.364C48.9285 138.635 46.4615 139.314 44.3532 140.109L44.2266 140.221C40.2248 139.648 27.9717 136.931 27.9717 132.832C27.9717 131.561 29.1675 130.341 31.2997 129.228C31.5889 129.549 36.8996 131.144 40.5692 137.383C40.8058 137.782 41.4165 137.427 41.1813 137.023C39.0357 133.376 35.8032 130.497 32.0559 128.854C35.8138 127.108 41.9259 125.656 49.3674 124.731C49.509 126.056 49.6551 127.383 49.786 128.708C49.997 128.68 50.1519 128.835 50.1661 129.032C50.6555 133.906 51.0562 139.118 51.2076 141.629C61.3801 142.526 75.9811 142.409 82.3546 141.671C82.3546 141.529 82.8473 133.768 82.8473 130.538C82.8473 130.341 83.0163 130.186 83.1991 130.186C83.2332 126.774 82.9927 126.622 82.9138 124.346C97.3439 125.745 107.78 129.067 107.78 132.832C107.78 137.011 94.6984 139.863 90.6025 140.376C88.7664 138.977 85.5422 138.227 83.2697 137.871C83.2643 137.969 83.0856 141.996 83.0163 142.065C88.0053 141.566 91.1252 140.999 90.9825 141.02C91.0019 141.02 91.0213 141.019 91.0407 141.016C102.13 139.168 108.49 136.185 108.49 132.832C108.49 128.582 98.027 125.039 82.9059 123.611C82.8983 122.762 82.8826 122.872 82.9675 120.463C105.936 122.031 123.275 127.053 123.275 132.82ZM75.1204 99.8836C74.658 99.8316 71.4079 99.4661 71.6158 99.4895C71.1605 99.4244 71.2169 98.7544 71.6863 98.7857L75.1626 99.1798C75.5975 99.2468 75.5557 99.8836 75.1204 99.8836ZM80.5109 101.249C81.2006 101.629 81.5947 102.473 81.4257 103.247C81.0175 105.063 78.3577 104.965 77.6818 103.402C76.9921 101.812 79.2018 100.503 80.5109 101.249ZM80.4829 109.905C81.1726 110.299 81.5666 111.143 81.3977 111.917C81.0035 113.733 78.3295 113.634 77.6538 112.072C76.9643 110.482 79.1738 109.173 80.4829 109.905ZM77.5998 80.2792C76.4392 83.1571 75.2412 86.1333 74.8105 89.2508C74.8017 89.3269 75.0095 90.482 75.226 92.3035C68.9687 90.1359 62.6206 89.5506 56.4313 90.4126C55.9521 88.8459 56.1925 89.346 55.3853 88.5999C52.8439 86.3106 50.6142 83.1876 48.57 79.0507C47.0756 76.0066 45.6949 72.5304 48.2431 69.809C48.4602 69.5754 48.9328 69.1442 49.4785 68.9734C50.5271 70.5129 51.7194 71.9652 53.0354 73.2885C52.9049 73.5201 52.7885 73.7592 52.6985 74.0082C52.632 74.1923 52.7276 74.3959 52.9118 74.4624C53.5734 74.6906 53.2369 73.4846 54.787 72.3379C55.1658 72.0588 54.7419 71.4887 54.366 71.7673C54.0175 72.0252 53.7092 72.3377 53.4412 72.6816C52.2948 71.5176 51.254 70.2472 50.3145 68.9108C50.6953 68.8515 50.7002 68.421 50.4397 68.2731C49.0921 67.5084 49.5613 64.2775 51.8551 63.1571C52.9189 62.6403 54.1927 62.7455 55.1152 63.3808C55.2854 64.1412 57.4279 66.7899 58.2102 67.2253C57.9499 67.5148 57.704 67.8186 57.5043 68.1512C57.2627 68.5517 57.8724 68.9144 58.1109 68.5169C59.1198 66.8399 60.193 66.8785 59.8268 66.3245C59.5375 65.9013 59.0887 66.4105 58.6718 66.7868C58.5353 66.507 57.1209 65.5656 55.8451 63.3219C55.8406 63.3142 55.8392 63.3095 55.8354 63.3025C55.852 63.2474 55.852 63.1989 55.8409 63.1423C55.8654 63.037 55.8579 62.9251 55.7828 62.8358C55.7528 62.8014 55.708 62.7989 55.6699 62.7789C54.983 61.7485 54.7384 60.5504 55.0598 59.5937C55.6778 57.8427 57.9636 57.0714 59.7797 57.6201C60.3806 57.794 60.4177 57.9275 60.6692 58.3869C60.7254 59.2795 61.5213 62.227 63.1159 64.9427L61.9929 65.9298C61.7462 66.1462 61.9039 66.5502 62.2269 66.5502C62.4675 66.5502 62.3846 66.4862 64.4414 64.7207C64.7915 64.4136 64.3308 63.8778 63.9733 64.1889L63.6617 64.4628C62.8566 63.0702 62.2259 61.5914 61.7775 60.0506C62.1231 59.8632 61.9071 59.6755 61.8627 58.8486C61.7837 57.6035 62.3114 56.4637 63.2753 55.7975C65.243 54.4152 68.2836 55.286 68.8179 56.8889C69.3365 58.3689 67.2187 61.9788 67.0981 63.8256C67.0721 63.8306 67.0469 63.8164 67.0216 63.8274C66.8429 63.9064 66.7626 64.1155 66.8416 64.2955C66.9646 64.5733 67.1073 64.8401 67.2456 65.1095C67.7569 66.826 69.6627 68.4757 70.3607 69.4129C70.4213 69.4933 70.5089 69.5394 70.6013 69.5514C71.7169 70.5926 72.9718 71.4869 74.3493 72.18C74.7703 72.3848 75.0879 71.7591 74.6679 71.5457C73.311 70.863 72.0611 69.9518 70.9534 68.8891L72.5977 63.9158C75.6553 65.3233 78.2059 66.0823 80.462 66.2563C81.8786 70.2282 79.1877 76.3372 77.5998 80.2792ZM95.2758 61.9495C92.3269 61.4053 86.7014 65.5877 81.425 65.5877C79.0214 65.5877 76.259 64.833 72.8214 63.2395C73.9806 60.3518 70.9418 69.1959 86.7179 21.2063C86.9467 20.5581 86.8513 19.9768 86.5635 19.4149C88.3775 18.7172 88.0914 18.7351 88.9868 18.6118C93.7559 17.9706 97.7932 20.1687 101.749 22.9993C103.176 24.02 104.778 25.2305 105.749 26.6763C107.227 28.8795 106.086 31.5224 106.268 33.8426C105.946 34.6927 104.052 48.4617 97.7279 64.5412C97.552 63.171 96.4323 62.1736 95.2758 61.9495ZM143.482 42.3871C140.787 55.7419 137.413 62.5472 133.254 68.5362C132.373 69.817 128.718 69.477 125.415 70.2688C121.042 71.3002 118.01 73.3095 116.273 73.54C115.479 73.6518 114.837 73.3302 115.028 72.5193C115.484 70.5739 119.57 68.6672 118.816 66.8078C118.449 65.9104 117.122 65.8952 116.007 66.1846C111.018 67.4375 103.56 75.5023 95.0113 75.7324C92.4717 75.8278 91.4813 74.4914 91.614 72.8573C91.8602 69.7933 96.0474 69.2928 97.3984 66.406C97.5933 66.4734 97.7748 66.3681 97.8393 66.2068C101.632 56.867 104.519 46.7603 106.669 35.3799C106.965 35.9706 107.433 36.4791 108.208 36.8044C116.347 40.1959 120.743 39.7363 125.789 40.3693C126.99 40.5244 128.341 40.7377 129.176 41.3193C129.65 41.6503 129.985 42.1489 129.974 42.5021C129.966 42.7459 129.774 43.0262 129.567 43.3221C129.388 43.2583 129.181 43.3511 129.114 43.5366C126.564 50.6511 123.164 57.4636 119.008 63.7873C118.75 64.1813 119.343 64.5673 119.601 64.1778C123.457 58.3106 126.632 52.0108 129.122 45.4553C129.72 46.8363 131.583 46.7318 133.045 46.4118C136.452 45.6681 139.356 44.2194 141.929 41.9813C142.755 41.2392 143.714 41.2113 143.482 42.3871Z" fill="#3B3E9C"/>
<path d="M93.3341 40.7659C91.6903 41.8808 90.4465 44.3597 88.6266 44.882C87.8663 45.0967 86.8664 44.8972 86.3526 43.9472C85.8014 42.9237 86.0202 41.4515 86.2321 40.4322C87.0423 36.564 88.6377 33.1474 90.7276 30.8137C91.0387 30.463 90.515 29.994 90.1986 30.3401C88.0283 32.7651 86.3733 36.2981 85.5368 40.2881C85.3028 41.4155 85.0673 43.0553 85.7293 44.2837C86.3249 45.3889 87.5949 45.9152 88.8233 45.5634C90.5978 45.0525 91.7155 43.2099 92.956 41.9999C92.1264 45.6479 91.2206 49.7321 90.1944 54.4436C90.095 54.9009 90.7873 55.0526 90.8869 54.5932C92.0087 49.4412 92.9878 45.0399 93.8797 41.1385C93.9486 40.8303 93.6078 40.5855 93.3341 40.7659Z" fill="#3B3E9C"/>
<path d="M117.708 47.2539C116.542 46.6335 114.787 46.477 113.834 47.4146C113.502 47.7435 113.996 48.2487 114.333 47.9187C115.006 47.2539 116.436 47.38 117.374 47.8799C121.752 50.2321 117.221 56.0151 113.578 59.2753C112.917 59.8611 112.138 60.4635 111.376 60.4829C110.222 60.5536 109.917 58.9997 109.84 58.346C109.552 55.914 109.934 53.2812 110.887 51.1193C111.509 49.7025 112.334 48.8993 113.341 48.7275C113.807 48.6504 113.679 47.9412 113.222 48.0295C111.966 48.2414 110.962 49.1859 110.239 50.834C108.857 53.9627 108.011 61.192 111.394 61.192C112.384 61.1671 113.291 60.4774 114.05 59.8043C118.256 56.0392 122.639 49.8993 117.708 47.2539Z" fill="#3B3E9C"/>
<path d="M135.012 55.3392C133.153 57.49 128.262 59.2517 129.324 56.6106C129.982 54.9929 130.96 53.4473 132.313 51.8879C132.625 51.5296 132.08 51.0718 131.779 51.4226C130.373 53.0429 129.355 54.6522 128.668 56.3446C128.024 57.9324 129.035 59.1666 131.274 58.4414C132.348 58.0938 133.284 57.6465 134.076 57.105C133.148 58.9788 132.445 60.7834 131.939 62.5783C131.81 63.0284 132.496 63.2225 132.621 62.7694C133.263 60.4898 134.235 58.1908 135.591 55.7422C135.794 55.3728 135.295 55.018 135.012 55.3392Z" fill="#3B3E9C"/>
<path d="M92.8357 137.055C95.2718 133.144 99.1524 130.384 103.483 129.484C103.934 129.389 103.809 128.705 103.339 128.788C98.8187 129.729 94.7718 132.605 92.2346 136.681C91.9861 137.079 92.5899 137.454 92.8357 137.055Z" fill="#3B3E9C"/>
<path d="M56.8988 20.3641C48.6869 22.0722 50.481 29.7526 55.4155 29.7526C55.7008 29.7526 55.9861 29.7236 56.2659 29.6626C56.7119 29.5657 56.5884 28.8791 56.1135 28.9701C53.6338 29.5097 51.425 27.2438 52.0335 24.7765C53.098 20.4498 63.6266 18.4912 70.931 24.458C71.2991 24.7558 71.7399 24.2036 71.3798 23.9096C67.3745 20.6383 61.9635 19.3157 56.8988 20.3641Z" fill="#3B3E9C"/>
<path d="M71.6223 18.9313C69.7554 18.0782 67.9453 17.0533 66.246 15.8872C65.8611 15.6239 65.4576 16.2049 65.8443 16.4717C67.5783 17.6613 69.423 18.7056 71.3287 19.5767C71.7513 19.7756 72.0501 19.127 71.6223 18.9313Z" fill="#3B3E9C"/>
<path d="M74.8239 10.8297C74.8974 11.2976 75.5973 11.1807 75.5246 10.7216C75.2374 8.89515 72.0006 9.07389 72.1537 12.421C72.3218 15.9662 75.3399 18.6422 78.7613 18.5106C79.1662 18.4962 79.2735 17.8746 78.7363 17.8015C75.6824 17.9193 73.0097 15.5279 72.8628 12.3877C72.7447 9.94911 74.6829 9.93299 74.8239 10.8297Z" fill="#3B3E9C"/>
<path d="M117.782 91.3521C116.057 90.7261 114.792 89.006 114.776 87.2638C114.774 87.0685 114.615 86.912 114.421 86.912C114.42 86.912 114.418 86.912 114.418 86.912C114.222 86.9134 114.065 87.074 114.066 87.2693C114.086 89.3301 115.514 91.2829 117.54 92.0196C120.72 93.1715 124.629 91.3354 125.832 87.3122C131.91 89.8985 138.399 85.7498 139.027 79.5787C139.073 79.1166 138.372 79.0284 138.321 79.5067C137.737 85.2751 131.63 89.0991 126.007 86.617C126.359 84.8747 125.882 83.1421 124.52 83.2779C123.343 83.3969 122.292 85.4887 125.179 87.0034C124.116 90.699 120.632 92.3869 117.782 91.3521ZM124.65 83.9814C125.433 83.9814 125.511 85.3662 125.347 86.2888C123.413 85.265 124.033 83.9814 124.65 83.9814Z" fill="#3B3E9C"/>
<path d="M39.1334 62.5082C36.797 67.5591 37.2235 73.8523 40.2205 78.5431C40.4708 78.9313 41.0732 78.5591 40.8188 78.1609C37.9479 73.6695 37.5393 67.6422 39.776 62.8046C39.9743 62.3815 39.329 62.0804 39.1334 62.5082Z" fill="#3B3E9C"/>
<path d="M31.1832 64.7358C30.2054 67.6455 30.2608 70.8295 31.3411 73.7019C31.5068 74.1395 32.1693 73.893 32.0058 73.4526C30.9824 70.7326 30.9297 67.7175 31.8563 64.9629C32.0072 64.5135 31.3317 64.2966 31.1832 64.7358Z" fill="#3B3E9C"/>
</svg>
