<svg width="200" height="190" viewBox="0 0 200 190" fill="none" xmlns="http://www.w3.org/2000/svg">
<g filter="url(#filter0_d_122_3984)">
<path d="M152.11 160.406C149.938 160.406 147.745 160.278 145.597 160.027L146.314 153.9C148.227 154.124 150.176 154.237 152.11 154.237V160.406ZM139.172 158.891C137.063 158.389 134.96 157.752 132.915 157.001L135.047 151.211C136.861 151.879 138.732 152.444 140.599 152.89L139.172 158.891ZM126.932 154.382C124.995 153.393 123.097 152.282 121.299 151.077L124.727 145.95C126.327 147.019 128.011 148.006 129.734 148.884L126.932 154.382ZM116.099 147.144C114.448 145.737 112.861 144.216 111.388 142.624L115.912 138.43C117.222 139.846 118.633 141.197 120.099 142.447L116.099 147.144ZM107.237 137.589C105.953 135.829 104.767 133.982 103.706 132.102L109.081 129.074C110.023 130.746 111.081 132.388 112.22 133.952L107.237 137.589ZM100.841 126.241C100.001 124.225 99.2776 122.152 98.6903 120.075L104.625 118.394C105.146 120.236 105.791 122.078 106.535 123.867L100.841 126.241ZM97.2806 113.697C96.937 111.546 96.7203 109.362 96.6328 107.205L102.796 106.955C102.874 108.873 103.067 110.816 103.371 112.73L97.2806 113.697ZM102.893 101.146L96.7412 100.691C96.9039 98.5067 97.1962 96.3285 97.6088 94.217L103.664 95.4038C103.296 97.2759 103.037 99.2085 102.893 101.146ZM105.107 89.778L99.2329 87.8921C99.8926 85.8392 100.685 83.7905 101.592 81.804L107.207 84.3647C106.399 86.133 105.691 87.9542 105.107 89.778ZM109.93 79.2421L104.658 76.0339C105.788 74.1812 107.038 72.3754 108.375 70.6688L113.232 74.4703C112.045 75.99 110.933 77.594 109.93 79.2421ZM117.072 70.1174L112.692 65.7764C114.211 64.2429 115.844 62.7776 117.549 61.4188L121.393 66.2449C119.877 67.4529 118.422 68.7558 117.072 70.1174ZM126.137 62.9025L122.883 57.6608C124.733 56.5129 126.664 55.4675 128.625 54.5517L131.234 60.1428C129.496 60.9549 127.778 61.8842 126.137 62.9025ZM136.623 58.0028L134.689 52.1437C136.75 51.4627 138.874 50.8994 141 50.4671L142.229 56.5132C140.338 56.8973 138.452 57.397 136.623 58.0028ZM147.974 55.6966L147.462 49.5483C148.995 49.4202 150.544 49.3555 152.11 49.3555V55.525C150.719 55.525 149.339 55.5836 147.974 55.6966Z" fill="#AFB1B8"/>
<path d="M108.924 135.727V123.388C108.924 121.685 107.543 120.304 105.84 120.304H94.5918C93.2249 120.304 92.0654 119.389 91.6424 118.09C91.0474 116.261 90.3152 114.495 89.4553 112.804C88.8357 111.585 89.0096 110.119 89.9766 109.152L97.9272 101.202C99.1318 99.9971 99.1318 98.0437 97.9272 96.8391L89.202 88.1143C87.9974 86.9097 86.0444 86.9097 84.8394 88.1143L76.8888 96.0649C75.9218 97.0319 74.4557 97.2058 73.2369 96.5862C71.5457 95.7263 69.7804 94.9941 67.9516 94.3991C66.6517 93.9765 65.7375 92.8166 65.7375 91.4497V80.2019C65.7375 78.4984 64.3563 77.1172 62.6527 77.1172H50.3138C48.6102 77.1172 47.229 78.4984 47.229 80.2019V91.4497C47.229 92.8166 46.3148 93.9761 45.0149 94.3991C43.1861 94.9941 41.4204 95.7263 39.7296 96.5862C38.5108 97.2058 37.0447 97.0319 36.0777 96.0649L28.1275 88.1143C26.9229 86.9097 24.9699 86.9097 23.7649 88.1143L15.0401 96.8391C13.8355 98.0437 13.8355 99.9971 15.0401 101.202L22.9906 109.152C23.9577 110.119 24.1316 111.585 23.512 112.804C22.6521 114.495 21.9198 116.261 21.3249 118.09C20.9019 119.389 19.742 120.304 18.3755 120.304H7.12771C5.42416 120.304 4.04297 121.685 4.04297 123.388V135.727C4.04297 137.431 5.42416 138.812 7.12771 138.812H18.3755C19.7424 138.812 20.9019 139.726 21.3249 141.026C21.9198 142.855 22.6521 144.621 23.512 146.312C24.1316 147.53 23.9577 148.996 22.9906 149.963L15.0401 157.914C13.8355 159.119 13.8355 161.072 15.0401 162.277L23.7653 171.002C24.9699 172.206 26.9233 172.206 28.1279 171.002L36.0784 163.051C37.0451 162.084 38.5111 161.91 39.73 162.53C41.4212 163.39 43.1865 164.122 45.0157 164.717C46.3155 165.14 47.2298 166.299 47.2298 167.666V178.914C47.2298 180.617 48.611 181.999 50.3145 181.999H62.6535C64.3571 181.999 65.7383 180.617 65.7383 178.914V167.666C65.7383 166.299 66.6525 165.14 67.9523 164.717C69.7812 164.122 71.5468 163.389 73.2381 162.53C74.4569 161.91 75.9229 162.084 76.8896 163.051L84.8402 171.001C86.0448 172.206 87.9982 172.206 89.2028 171.001L97.928 162.276C99.1326 161.072 99.1326 159.118 97.928 157.914L89.9774 149.963C89.0104 148.996 88.8364 147.53 89.4561 146.311C90.316 144.62 91.0482 142.855 91.6432 141.026C92.0658 139.726 93.2257 138.812 94.5926 138.812H105.84C107.543 138.812 108.924 137.431 108.924 135.727ZM69.5857 143.417C50.1094 157.816 28.2258 135.932 42.6246 116.456C42.8333 116.174 43.0993 115.907 43.3816 115.699C62.8579 101.3 84.7414 123.184 70.3426 142.66C70.134 142.942 69.8676 143.208 69.5857 143.417Z" fill="#D3D4D9"/>
<path d="M127.432 46.271H126.909C126.909 30.8474 124.347 3.08474 96.5842 3.08474V0H78.0757V3.08474C50.3129 3.08474 47.751 30.8474 47.751 46.271H47.2281H41.0586V58.61H133.601V46.271H127.432Z" fill="#DADEE6"/>
<path d="M99.6695 9.25391H93.5V37.0167H99.6695V9.25391Z" fill="#CFAC30"/>
<path d="M81.1617 9.25391H74.9922V37.0167H81.1617V9.25391Z" fill="#CFAC30"/>
<path d="M124.347 46.2695H50.3125V52.439H124.347V46.2695Z" fill="#CFAC30"/>
<path d="M129.38 132.577C134.834 138.031 141.783 141.746 149.349 143.251C156.914 144.755 164.755 143.983 171.882 141.031C179.008 138.079 185.099 133.081 189.384 126.667C193.67 120.254 195.957 112.713 195.957 105C195.957 97.2865 193.67 89.7463 189.384 83.3328C185.099 76.9192 179.008 71.9205 171.882 68.9687C164.755 66.0169 156.914 65.2446 149.349 66.7494C141.783 68.2542 134.834 71.9686 129.38 77.4228L137.451 85.4936C141.309 81.6356 146.224 79.0083 151.575 77.9438C156.926 76.8794 162.473 77.4257 167.514 79.5136C172.555 81.6016 176.863 85.1374 179.894 89.6739C182.925 94.2104 184.543 99.544 184.543 105C184.543 110.456 182.925 115.79 179.894 120.326C176.863 124.863 172.555 128.398 167.514 130.486C162.473 132.574 156.926 133.121 151.575 132.056C146.224 130.992 141.309 128.364 137.451 124.506L129.38 132.577Z" fill="#E4E7F0"/>
<path d="M189.457 105C193.047 105 196.012 102.07 195.417 98.5299C194.362 92.2626 191.786 86.3135 187.871 81.2239C182.628 74.4068 175.279 69.5139 166.967 67.3065C158.655 65.0991 149.847 65.7011 141.912 69.0187C133.978 72.3364 127.362 78.1836 123.096 85.6506C118.829 93.1176 117.15 101.786 118.32 110.306C119.49 118.826 123.443 126.72 129.565 132.761C135.686 138.801 143.633 142.649 152.168 143.705C158.54 144.493 164.974 143.693 170.908 141.419C174.261 140.135 175.28 136.093 173.457 133C171.634 129.907 167.652 128.969 164.205 129.969C160.838 130.946 157.287 131.239 153.764 130.803C148.074 130.099 142.777 127.534 138.695 123.507C134.614 119.48 131.979 114.217 131.199 108.537C130.419 102.857 131.538 97.0784 134.383 92.1004C137.227 87.1224 141.637 83.2242 146.927 81.0125C152.217 78.8007 158.089 78.3994 163.63 79.871C169.172 81.3426 174.071 84.6045 177.567 89.1493C179.731 91.9632 181.281 95.1712 182.149 98.5674C183.037 102.046 185.867 105 189.457 105Z" fill="#696CFF"/>
<path d="M144.946 99.2045C145.465 99.2083 145.976 99.303 146.48 99.4886C146.984 99.6742 147.438 99.9773 147.843 100.398C148.252 100.818 148.578 101.386 148.821 102.102C149.067 102.814 149.192 103.701 149.196 104.761C149.196 105.78 149.093 106.687 148.889 107.483C148.684 108.275 148.391 108.943 148.008 109.489C147.629 110.034 147.169 110.449 146.627 110.733C146.086 111.017 145.476 111.159 144.798 111.159C144.105 111.159 143.489 111.023 142.951 110.75C142.413 110.477 141.976 110.1 141.639 109.619C141.302 109.134 141.092 108.578 141.008 107.949H142.741C142.855 108.449 143.086 108.854 143.434 109.165C143.787 109.472 144.241 109.625 144.798 109.625C145.65 109.625 146.315 109.254 146.792 108.511C147.27 107.765 147.51 106.723 147.514 105.386H147.423C147.226 105.712 146.98 105.992 146.684 106.227C146.393 106.462 146.065 106.644 145.701 106.773C145.338 106.902 144.949 106.966 144.537 106.966C143.866 106.966 143.256 106.801 142.707 106.472C142.158 106.142 141.72 105.689 141.395 105.114C141.069 104.538 140.906 103.881 140.906 103.142C140.906 102.407 141.073 101.741 141.406 101.142C141.743 100.544 142.213 100.07 142.815 99.7216C143.421 99.3693 144.131 99.197 144.946 99.2045ZM144.951 100.682C144.508 100.682 144.109 100.792 143.752 101.011C143.4 101.227 143.122 101.521 142.917 101.892C142.713 102.259 142.61 102.669 142.61 103.119C142.61 103.57 142.709 103.979 142.906 104.347C143.107 104.71 143.379 105 143.724 105.216C144.073 105.428 144.47 105.534 144.917 105.534C145.251 105.534 145.561 105.47 145.849 105.341C146.137 105.212 146.389 105.034 146.605 104.807C146.821 104.576 146.989 104.314 147.11 104.023C147.232 103.731 147.292 103.424 147.292 103.102C147.292 102.674 147.19 102.277 146.985 101.909C146.785 101.542 146.508 101.246 146.156 101.023C145.804 100.795 145.402 100.682 144.951 100.682ZM155.299 111.193C154.402 111.189 153.635 110.953 152.998 110.483C152.362 110.013 151.875 109.33 151.538 108.432C151.201 107.534 151.032 106.453 151.032 105.188C151.032 103.926 151.201 102.848 151.538 101.955C151.879 101.061 152.368 100.379 153.004 99.9091C153.644 99.4394 154.409 99.2045 155.299 99.2045C156.19 99.2045 156.953 99.4413 157.589 99.9148C158.225 100.384 158.712 101.066 159.049 101.96C159.39 102.85 159.561 103.926 159.561 105.188C159.561 106.456 159.392 107.54 159.055 108.438C158.718 109.331 158.231 110.015 157.595 110.489C156.958 110.958 156.193 111.193 155.299 111.193ZM155.299 109.676C156.087 109.676 156.703 109.292 157.146 108.523C157.593 107.754 157.816 106.642 157.816 105.188C157.816 104.222 157.714 103.405 157.51 102.739C157.309 102.068 157.019 101.561 156.64 101.216C156.265 100.867 155.818 100.693 155.299 100.693C154.515 100.693 153.9 101.08 153.453 101.852C153.006 102.625 152.78 103.737 152.777 105.188C152.777 106.157 152.877 106.977 153.078 107.648C153.282 108.314 153.572 108.82 153.947 109.165C154.322 109.506 154.773 109.676 155.299 109.676ZM167.65 108.818V108.205C167.65 107.765 167.741 107.364 167.923 107C168.109 106.633 168.377 106.339 168.73 106.119C169.086 105.896 169.516 105.784 170.02 105.784C170.535 105.784 170.967 105.894 171.315 106.114C171.663 106.333 171.927 106.627 172.105 106.994C172.287 107.362 172.377 107.765 172.377 108.205V108.818C172.377 109.258 172.287 109.661 172.105 110.028C171.923 110.392 171.656 110.686 171.304 110.909C170.955 111.129 170.527 111.239 170.02 111.239C169.508 111.239 169.076 111.129 168.724 110.909C168.372 110.686 168.105 110.392 167.923 110.028C167.741 109.661 167.65 109.258 167.65 108.818ZM168.974 108.205V108.818C168.974 109.144 169.052 109.439 169.207 109.705C169.362 109.97 169.633 110.102 170.02 110.102C170.402 110.102 170.669 109.97 170.821 109.705C170.972 109.439 171.048 109.144 171.048 108.818V108.205C171.048 107.879 170.974 107.583 170.826 107.318C170.682 107.053 170.413 106.92 170.02 106.92C169.641 106.92 169.372 107.053 169.213 107.318C169.054 107.583 168.974 107.879 168.974 108.205ZM161.798 102.159V101.545C161.798 101.106 161.889 100.703 162.071 100.335C162.256 99.9678 162.525 99.6742 162.877 99.4545C163.234 99.2348 163.663 99.125 164.167 99.125C164.682 99.125 165.114 99.2348 165.463 99.4545C165.811 99.6742 166.074 99.9678 166.252 100.335C166.431 100.703 166.52 101.106 166.52 101.545V102.159C166.52 102.598 166.429 103.002 166.247 103.369C166.069 103.733 165.804 104.027 165.451 104.25C165.103 104.47 164.675 104.58 164.167 104.58C163.652 104.58 163.218 104.47 162.866 104.25C162.518 104.027 162.252 103.733 162.071 103.369C161.889 103.002 161.798 102.598 161.798 102.159ZM163.127 101.545V102.159C163.127 102.485 163.203 102.78 163.355 103.045C163.51 103.311 163.781 103.443 164.167 103.443C164.546 103.443 164.811 103.311 164.963 103.045C165.118 102.78 165.196 102.485 165.196 102.159V101.545C165.196 101.22 165.122 100.924 164.974 100.659C164.826 100.394 164.557 100.261 164.167 100.261C163.788 100.261 163.52 100.394 163.36 100.659C163.205 100.924 163.127 101.22 163.127 101.545ZM162.338 111L170.338 99.3636H171.696L163.696 111H162.338Z" fill="#334466"/>
</g>
<defs>
<filter id="filter0_d_122_3984" x="0.0429688" y="0" width="199.914" height="189.998" filterUnits="userSpaceOnUse" color-interpolation-filters="sRGB">
<feFlood flood-opacity="0" result="BackgroundImageFix"/>
<feColorMatrix in="SourceAlpha" type="matrix" values="0 0 0 0 0 0 0 0 0 0 0 0 0 0 0 0 0 0 127 0" result="hardAlpha"/>
<feOffset dy="4"/>
<feGaussianBlur stdDeviation="2"/>
<feComposite in2="hardAlpha" operator="out"/>
<feColorMatrix type="matrix" values="0 0 0 0 0 0 0 0 0 0 0 0 0 0 0 0 0 0 0.25 0"/>
<feBlend mode="normal" in2="BackgroundImageFix" result="effect1_dropShadow_122_3984"/>
<feBlend mode="normal" in="SourceGraphic" in2="effect1_dropShadow_122_3984" result="shape"/>
</filter>
</defs>
</svg>
