<svg width="180" height="36" viewBox="0 0 180 36" fill="none" xmlns="http://www.w3.org/2000/svg">
<path d="M45.8927 19.8608V0.991169H51.4844V19.8608C51.4844 21.681 51.0854 23.2457 50.2875 24.5548C49.4896 25.8514 48.3987 26.8488 47.0148 27.547C45.6434 28.2452 44.0974 28.5943 42.3769 28.5943C40.594 28.5943 39.0169 28.2951 37.6454 27.6966C36.274 27.0982 35.1956 26.1818 34.4101 24.9475C33.6247 23.7008 33.2319 22.1236 33.2319 20.2161H38.861C38.861 21.2135 38.9982 22.0052 39.2725 22.5912C39.5592 23.1771 39.9644 23.5948 40.488 23.8442C41.0117 24.0935 41.6413 24.2182 42.3769 24.2182C43.0875 24.2182 43.7047 24.0499 44.2283 23.7132C44.7519 23.3766 45.1571 22.8842 45.4439 22.2358C45.7431 21.5875 45.8927 20.7958 45.8927 19.8608Z" fill="#26334D"/>
<path d="M68.5881 23.3766V7.98545H73.9741V28.2203H68.906L68.5881 23.3766ZM69.1865 19.2249L70.7761 19.1875C70.7761 20.534 70.6203 21.787 70.3086 22.9465C69.9969 24.0935 69.5294 25.0909 68.906 25.9387C68.2826 26.774 67.4972 27.4286 66.5496 27.9023C65.6021 28.3636 64.4863 28.5943 63.2021 28.5943C62.2172 28.5943 61.307 28.4571 60.4717 28.1829C59.6489 27.8961 58.9382 27.4535 58.3398 26.8551C57.7538 26.2442 57.2925 25.4649 56.9559 24.5174C56.6317 23.5574 56.4696 22.4042 56.4696 21.0577V7.98545H61.8556V21.0951C61.8556 21.6935 61.9242 22.1984 62.0613 22.6099C62.2109 23.0213 62.4167 23.3579 62.6785 23.6197C62.9403 23.8816 63.2457 24.0686 63.5948 24.1808C63.9564 24.293 64.3554 24.3491 64.7917 24.3491C65.9013 24.3491 66.7741 24.1247 67.4099 23.6758C68.0582 23.227 68.5133 22.6161 68.7751 21.8431C69.0494 21.0577 69.1865 20.1849 69.1865 19.2249Z" fill="#26334D"/>
<path d="M84.1582 12.399V28.2203H78.7723V7.98545H83.8403L84.1582 12.399ZM90.2549 7.85455L90.1614 12.8478C89.8995 12.8104 89.5816 12.7792 89.2076 12.7543C88.846 12.7169 88.5157 12.6982 88.2164 12.6982C87.4559 12.6982 86.7951 12.7979 86.2341 12.9974C85.6855 13.1844 85.2242 13.4649 84.8502 13.839C84.4886 14.213 84.2144 14.6681 84.0273 15.2042C83.8528 15.7403 83.7531 16.3512 83.7281 17.0369L82.6434 16.7003C82.6434 15.3912 82.7744 14.1881 83.0362 13.0909C83.298 11.9813 83.6782 11.0151 84.177 10.1922C84.6881 9.36935 85.3115 8.73351 86.0471 8.28468C86.7827 7.83584 87.6242 7.61143 88.5718 7.61143C88.871 7.61143 89.1764 7.63636 89.4881 7.68623C89.7998 7.72364 90.0554 7.77974 90.2549 7.85455Z" fill="#26334D"/>
<path d="M99.1674 7.98545V28.2203H93.7627V7.98545H99.1674ZM93.4261 2.71169C93.4261 1.92623 93.7004 1.27792 94.2489 0.766753C94.7975 0.255584 95.5331 0 96.4557 0C97.3658 0 98.0952 0.255584 98.6437 0.766753C99.2048 1.27792 99.4853 1.92623 99.4853 2.71169C99.4853 3.49714 99.2048 4.14545 98.6437 4.65662C98.0952 5.16779 97.3658 5.42338 96.4557 5.42338C95.5331 5.42338 94.7975 5.16779 94.2489 4.65662C93.7004 4.14545 93.4261 3.49714 93.4261 2.71169Z" fill="#26334D"/>
<path d="M115.242 22.6286C115.242 22.2421 115.13 21.893 114.906 21.5813C114.681 21.2696 114.264 20.9829 113.653 20.721C113.054 20.4468 112.188 20.1974 111.053 19.973C110.031 19.7486 109.077 19.4681 108.192 19.1314C107.319 18.7823 106.559 18.3647 105.911 17.8784C105.275 17.3922 104.776 16.8187 104.414 16.1579C104.053 15.4847 103.872 14.7179 103.872 13.8577C103.872 13.0099 104.053 12.2119 104.414 11.4639C104.788 10.7158 105.318 10.0551 106.004 9.48156C106.702 8.89558 107.55 8.44052 108.547 8.11636C109.557 7.77974 110.692 7.61143 111.951 7.61143C113.709 7.61143 115.218 7.89195 116.477 8.45299C117.748 9.01403 118.721 9.78701 119.394 10.7719C120.08 11.7444 120.423 12.854 120.423 14.1008H115.037C115.037 13.5771 114.925 13.1096 114.7 12.6982C114.488 12.2743 114.152 11.9439 113.69 11.707C113.241 11.4577 112.655 11.333 111.932 11.333C111.334 11.333 110.817 11.439 110.38 11.6509C109.944 11.8504 109.607 12.1247 109.37 12.4738C109.146 12.8104 109.034 13.1844 109.034 13.5958C109.034 13.9075 109.096 14.1881 109.221 14.4374C109.358 14.6743 109.576 14.8925 109.875 15.0919C110.174 15.2914 110.561 15.4784 111.035 15.653C111.521 15.8151 112.119 15.9647 112.83 16.1018C114.289 16.401 115.592 16.7938 116.739 17.28C117.886 17.7538 118.796 18.4021 119.469 19.2249C120.142 20.0353 120.479 21.1013 120.479 22.4229C120.479 23.3205 120.279 24.1434 119.88 24.8914C119.481 25.6395 118.908 26.294 118.16 26.8551C117.412 27.4036 116.514 27.8338 115.467 28.1455C114.432 28.4447 113.266 28.5943 111.97 28.5943C110.087 28.5943 108.491 28.2577 107.182 27.5844C105.886 26.9112 104.901 26.0571 104.227 25.0223C103.567 23.9751 103.236 22.9029 103.236 21.8057H108.342C108.367 22.5413 108.554 23.1335 108.903 23.5823C109.264 24.0312 109.719 24.3553 110.268 24.5548C110.829 24.7543 111.434 24.854 112.082 24.854C112.78 24.854 113.36 24.7605 113.821 24.5735C114.282 24.374 114.632 24.1122 114.868 23.7881C115.118 23.4514 115.242 23.0649 115.242 22.6286Z" fill="#26334D"/>
<path d="M130.046 11.8753V36H124.66V7.98545H129.653L130.046 11.8753ZM142.856 17.8784V18.2712C142.856 19.7423 142.682 21.1075 142.333 22.3668C141.996 23.626 141.497 24.7231 140.837 25.6582C140.176 26.5808 139.353 27.3039 138.368 27.8275C137.396 28.3387 136.273 28.5943 135.002 28.5943C133.767 28.5943 132.695 28.3449 131.785 27.8462C130.875 27.3475 130.108 26.6494 129.485 25.7517C128.874 24.8416 128.381 23.7881 128.007 22.5912C127.633 21.3943 127.347 20.1101 127.147 18.7387V17.7101C127.347 16.239 127.633 14.8925 128.007 13.6706C128.381 12.4364 128.874 11.3704 129.485 10.4727C130.108 9.5626 130.869 8.85818 131.766 8.35948C132.677 7.86078 133.743 7.61143 134.964 7.61143C136.248 7.61143 137.377 7.85455 138.349 8.34078C139.334 8.82701 140.157 9.5252 140.818 10.4353C141.491 11.3455 141.996 12.4301 142.333 13.6894C142.682 14.9486 142.856 16.3449 142.856 17.8784ZM137.452 18.2712V17.8784C137.452 17.0182 137.377 16.2265 137.227 15.5034C137.09 14.7678 136.866 14.1257 136.554 13.5771C136.255 13.0286 135.856 12.6047 135.357 12.3055C134.871 11.9938 134.279 11.8379 133.58 11.8379C132.845 11.8379 132.215 11.9564 131.692 12.1932C131.18 12.4301 130.763 12.773 130.439 13.2218C130.114 13.6706 129.871 14.2068 129.709 14.8301C129.547 15.4535 129.447 16.1579 129.41 16.9434V19.5429C129.472 20.4655 129.647 21.2945 129.934 22.0301C130.22 22.7532 130.663 23.3268 131.261 23.7506C131.86 24.1745 132.645 24.3865 133.618 24.3865C134.328 24.3865 134.927 24.2306 135.413 23.919C135.899 23.5948 136.292 23.1522 136.591 22.5912C136.903 22.0301 137.121 21.3818 137.246 20.6462C137.383 19.9106 137.452 19.119 137.452 18.2712Z" fill="#26334D"/>
<path d="M152.274 12.399V28.2203H146.888V7.98545H151.956L152.274 12.399ZM158.37 7.85455L158.277 12.8478C158.015 12.8104 157.697 12.7792 157.323 12.7543C156.962 12.7169 156.631 12.6982 156.332 12.6982C155.571 12.6982 154.911 12.7979 154.35 12.9974C153.801 13.1844 153.34 13.4649 152.966 13.839C152.604 14.213 152.33 14.6681 152.143 15.2042C151.968 15.7403 151.869 16.3512 151.844 17.0369L150.759 16.7003C150.759 15.3912 150.89 14.1881 151.152 13.0909C151.413 11.9813 151.794 11.0151 152.292 10.1922C152.804 9.36935 153.427 8.73351 154.163 8.28468C154.898 7.83584 155.74 7.61143 156.687 7.61143C156.986 7.61143 157.292 7.63636 157.604 7.68623C157.915 7.72364 158.171 7.77974 158.37 7.85455Z" fill="#26334D"/>
<path d="M160.176 18.3086V17.9158C160.176 16.4322 160.388 15.067 160.812 13.8203C161.236 12.561 161.853 11.4701 162.664 10.5475C163.474 9.62494 164.471 8.90805 165.656 8.39688C166.84 7.87325 168.199 7.61143 169.733 7.61143C171.266 7.61143 172.631 7.87325 173.828 8.39688C175.025 8.90805 176.029 9.62494 176.839 10.5475C177.662 11.4701 178.285 12.561 178.709 13.8203C179.133 15.067 179.345 16.4322 179.345 17.9158V18.3086C179.345 19.7797 179.133 21.1449 178.709 22.4042C178.285 23.6509 177.662 24.7418 176.839 25.6769C176.029 26.5995 175.031 27.3164 173.847 27.8275C172.663 28.3387 171.304 28.5943 169.77 28.5943C168.237 28.5943 166.871 28.3387 165.675 27.8275C164.49 27.3164 163.486 26.5995 162.664 25.6769C161.853 24.7418 161.236 23.6509 160.812 22.4042C160.388 21.1449 160.176 19.7797 160.176 18.3086ZM165.562 17.9158V18.3086C165.562 19.1564 165.637 19.9481 165.787 20.6836C165.936 21.4192 166.173 22.0675 166.497 22.6286C166.834 23.1771 167.27 23.6073 167.807 23.919C168.343 24.2306 168.997 24.3865 169.77 24.3865C170.518 24.3865 171.16 24.2306 171.696 23.919C172.232 23.6073 172.663 23.1771 172.987 22.6286C173.311 22.0675 173.548 21.4192 173.697 20.6836C173.859 19.9481 173.941 19.1564 173.941 18.3086V17.9158C173.941 17.093 173.859 16.32 173.697 15.5969C173.548 14.8613 173.305 14.213 172.968 13.6519C172.644 13.0784 172.214 12.6296 171.678 12.3055C171.142 11.9813 170.493 11.8192 169.733 11.8192C168.972 11.8192 168.324 11.9813 167.788 12.3055C167.264 12.6296 166.834 13.0784 166.497 13.6519C166.173 14.213 165.936 14.8613 165.787 15.5969C165.637 16.32 165.562 17.093 165.562 17.9158Z" fill="#26334D"/>
<path d="M7.89962 0C14.6115 0 21.3234 0 28.2386 0C28.2386 2.67497 28.2386 5.34993 28.2386 8.10596C29.581 8.10596 30.9234 8.10596 32.3064 8.10596C33.2811 8.75805 33.7706 9.14065 34.4749 9.99834C34.7213 10.2683 34.7213 10.2683 34.9727 10.5436C36.135 11.8336 36.135 11.8336 36.135 12.1589C33.5292 12.1589 30.9234 12.1589 28.2386 12.1589C28.2386 17.4302 28.2386 22.7015 28.2386 28.1325C28.0807 28.1325 27.9228 28.1325 27.7601 28.1325C27.4142 27.7823 27.4142 27.7823 27.0123 27.298C26.3827 26.5346 26.3827 26.5346 25.6205 25.9114C24.873 25.3463 24.2878 24.8067 24.0631 23.8676C23.895 22.4835 23.9516 21.0894 23.9839 19.6987C23.9875 19.2471 23.9902 18.7954 23.9921 18.3438C23.9994 17.16 24.0182 15.9766 24.0394 14.7929C24.0625 13.3701 24.0712 11.9472 24.0824 10.5243C24.1009 8.36687 24.1376 6.21044 24.1708 4.05298C20.1437 4.05298 16.1166 4.05298 11.9674 4.05298C11.9674 5.39046 11.9674 6.72795 11.9674 8.10596C15.4418 8.10596 18.9162 8.10596 22.4959 8.10596C22.4959 9.44344 22.4959 10.7809 22.4959 12.1589C21.7062 12.1589 20.9166 12.1589 20.103 12.1589C20.103 20.0265 20.103 27.894 20.103 36C19.5503 35.5279 18.9975 35.0559 18.4281 34.5695C18.0921 34.3225 18.0921 34.3225 17.7493 34.0705C16.7377 33.2481 16.0241 32.5115 15.8279 31.2005C15.7281 29.9903 15.7657 28.7841 15.8016 27.5718C15.806 27.1262 15.8094 26.6806 15.8118 26.235C15.8209 25.0691 15.8444 23.9039 15.8709 22.7382C15.8955 21.546 15.9064 20.3537 15.9184 19.1613C15.944 16.8269 15.9847 14.493 16.0352 12.1589C15.8908 12.1674 15.7465 12.1759 15.5977 12.1846C14.0761 12.2699 12.5551 12.3269 11.0317 12.3685C10.4657 12.3875 9.89984 12.4134 9.3345 12.4467C4.38796 12.7304 4.38796 12.7304 2.58119 11.3012C1.61823 10.407 0.736578 9.43616 0.0032959 8.34437C0.0032959 8.2657 0.0032959 8.18702 0.0032959 8.10596C2.60908 8.10596 5.21487 8.10596 7.89962 8.10596C7.89962 5.43099 7.89962 2.75603 7.89962 0Z" fill="#26334D"/>
<path d="M12.041 13.5879H7.86877V23.6011C7.96414 24.7455 8.94162 25.5879 9.41844 25.866C9.70454 25.9614 10.9681 27.4157 11.5641 28.1309H12.041V13.5879Z" fill="#26334D"/>
</svg>
